<svg id="Layer_2" data-name="Layer 2" xmlns="http://www.w3.org/2000/svg" viewBox="0 0 890.73 717.78"><defs><style>.cls-1{fill:#b64f43;}.cls-2{fill:#c35548;}.cls-3{fill:#d1594c;stroke:#d1594c;stroke-miterlimit:10;}.cls-4{fill:#aa4840;}.cls-5{fill:#b4b4b5;}.cls-6{fill:#828282;}.cls-7{fill:#b54f45;}.cls-8{fill:#9a433a;}.cls-9{fill:none;stroke:#69bd45;stroke-linecap:round;stroke-linejoin:round;stroke-width:12px;}</style></defs><title>gasPrice</title><path class="cls-1" d="M682.93,486.88v51.31a6.2,6.2,0,0,1-6.2,6.2H663.85V480.67h12.88A6.2,6.2,0,0,1,682.93,486.88Z" transform="translate(-58.25 -141.36)"/><path class="cls-2" d="M663.85,243.48V777.66H644.62s-.5-493.91,0-530.35-34.42-45.6-34.42-45.6h11.88A41.77,41.77,0,0,1,663.85,243.48Z" transform="translate(-58.25 -141.36)"/><path class="cls-3" d="M334.3,777.66v5.77H307.89v75.21h356v-81Z" transform="translate(-58.25 -141.36)"/><path class="cls-3" d="M644.62,247.31c.51-36.45-34.42-45.6-34.42-45.6H376.07a41.78,41.78,0,0,0-41.77,41.77V777.66H644.62S644.12,283.75,644.62,247.31ZM425.7,512.53a12,12,0,1,1,12,12A12,12,0,0,1,425.7,512.53Zm62.55,89.37a52.8,52.8,0,0,1-50.59-36.4h100A52.78,52.78,0,0,1,488.25,601.9Zm49.41-77.4a12,12,0,1,1,12-12A12,12,0,0,1,537.66,524.5Zm98-172.68a42.57,42.57,0,0,1-42.52,42.52H403.9a42.56,42.56,0,0,1-42.52-42.52v-80.3A42.56,42.56,0,0,1,403.9,229H593.09a42.57,42.57,0,0,1,42.52,42.52Z" transform="translate(-58.25 -141.36)"/><path class="cls-4" d="M773.18,461.35v260.1a12,12,0,0,1-12,12h-54a12,12,0,0,1-12-12V524.53h-12.2v-24h24.2a12,12,0,0,1,12,12V709.45h30V461.35Z" transform="translate(-58.25 -141.36)"/><path class="cls-5" d="M787.66,362.24v89.11a10,10,0,0,1-10,10H745.45a17.69,17.69,0,0,1-17.69-17.69V369.93a17.69,17.69,0,0,1,17.69-17.69h32.21A10,10,0,0,1,787.66,362.24Z" transform="translate(-58.25 -141.36)"/><path class="cls-6" d="M768.71,315.49v36.75h-22V321.86l-26.26-15.1a11,11,0,1,1,11-19.07L763.19,306A11,11,0,0,1,768.71,315.49Z" transform="translate(-58.25 -141.36)"/><rect class="cls-7" x="276.05" y="636.31" width="329.55" height="6"/><rect class="cls-2" x="605.6" y="642.08" width="24.76" height="75.21"/><path class="cls-8" d="M593.09,229H403.9a42.56,42.56,0,0,0-42.52,42.52v80.3a42.56,42.56,0,0,0,42.52,42.52H593.09a42.57,42.57,0,0,0,42.52-42.52v-80.3A42.57,42.57,0,0,0,593.09,229Zm32.52,122.82a32.56,32.56,0,0,1-32.52,32.52H403.9a32.56,32.56,0,0,1-32.52-32.52v-80.3A32.55,32.55,0,0,1,403.9,239H593.09a32.55,32.55,0,0,1,32.52,32.52Z" transform="translate(-58.25 -141.36)"/><rect class="cls-2" x="111.92" y="206.21" width="23.17" height="23.17" transform="translate(131.92 -164.9) rotate(45)"/><rect class="cls-2" x="215.13" y="309.41" width="39.32" height="39.32" transform="translate(243.2 -210.99) rotate(45)"/><rect class="cls-2" x="126.78" y="736.73" width="15.82" height="15.82" transform="translate(507.74 -18.5) rotate(45)"/><rect class="cls-2" x="175.16" y="547.09" width="22.93" height="22.93" transform="translate(391.36 -109.72) rotate(45)"/><rect class="cls-2" x="64.96" y="436.89" width="32.4" height="32.4" transform="translate(285.9 -66.04) rotate(45)"/><rect class="cls-2" x="858.07" y="146.15" width="23.17" height="23.17" transform="translate(308 -710.09) rotate(45)"/><rect class="cls-2" x="841.2" y="713.79" width="39.32" height="39.32" transform="translate(712.52 -535.25) rotate(45)"/><rect class="cls-2" x="924.86" y="586.98" width="15.82" height="15.82" transform="translate(635.6 -626.69) rotate(45)"/><rect class="cls-2" x="921.31" y="426.98" width="22.93" height="22.93" transform="translate(524.98 -672.51) rotate(45)"/><rect class="cls-2" x="817.28" y="245.71" width="32.4" height="32.4" transform="translate(371.07 -654) rotate(45)"/><polyline class="cls-9" points="367.28 196.31 397.03 166.56 436.2 205.73 514.37 127.56"/></svg>