<svg id="Layer_1" data-name="Layer 1" xmlns="http://www.w3.org/2000/svg" viewBox="0 0 50.02 48.78"><defs><style>.cls-1,.cls-2{fill:#fff;}.cls-1{fill-rule:evenodd;}</style></defs><title>github</title><path class="cls-1" d="M500,475.61a25,25,0,0,0-7.91,48.74c1.25.23,1.71-.54,1.71-1.2s0-2.57,0-4.66c-7,1.51-8.43-3-8.43-3-1.14-2.89-2.77-3.66-2.77-3.66-2.27-1.55.17-1.52.17-1.52a5.26,5.26,0,0,1,3.83,2.58c2.23,3.82,5.85,2.71,7.28,2.08a5.3,5.3,0,0,1,1.59-3.35c-5.56-.63-11.4-2.78-11.4-12.36a9.67,9.67,0,0,1,2.58-6.71,9,9,0,0,1,.24-6.62s2.1-.67,6.88,2.56a23.78,23.78,0,0,1,12.53,0c4.77-3.23,6.87-2.56,6.87-2.56a9,9,0,0,1,.24,6.62,9.63,9.63,0,0,1,2.58,6.71c0,9.61-5.86,11.72-11.42,12.34a6,6,0,0,1,1.69,4.63c0,3.35,0,6,0,6.87,0,.66.45,1.44,1.72,1.2A25,25,0,0,0,500,475.61Z" transform="translate(-474.99 -475.61)"/><path class="cls-2" d="M484.46,511.52c0,.12-.25.16-.43.07s-.28-.25-.22-.37.25-.17.43-.08.29.25.22.38Zm-.31-.23" transform="translate(-474.99 -475.61)"/><path class="cls-2" d="M485.48,512.65a.47.47,0,0,1-.59-.64c.12-.11.35-.06.51.12a.38.38,0,0,1,.08.52Zm-.24-.26" transform="translate(-474.99 -475.61)"/><path class="cls-2" d="M486.46,514.09c-.15.1-.4,0-.56-.22a.44.44,0,0,1,0-.6c.15-.1.4,0,.56.21s.15.5,0,.61Zm0,0" transform="translate(-474.99 -475.61)"/><path class="cls-2" d="M487.81,515.48c-.13.15-.43.11-.64-.1a.48.48,0,0,1-.14-.64c.14-.15.43-.11.65.1s.28.49.13.64Zm0,0" transform="translate(-474.99 -475.61)"/><path class="cls-2" d="M489.68,516.29c-.06.19-.35.28-.63.2s-.47-.32-.41-.52a.49.49,0,0,1,.63-.2c.28.09.47.32.41.52Zm0,0" transform="translate(-474.99 -475.61)"/><path class="cls-2" d="M491.72,516.44c0,.2-.23.37-.53.38s-.54-.16-.54-.37.23-.37.53-.38.54.16.54.37Zm0,0" transform="translate(-474.99 -475.61)"/><path class="cls-2" d="M493.63,516.11c0,.2-.17.41-.47.46s-.56-.07-.59-.27.17-.41.46-.46.56.07.6.27Zm0,0" transform="translate(-474.99 -475.61)"/></svg>